Inverse Dynamics Generalized Forces																																												
version=1																																												
nRows=17																																												
nColumns=45																																												
inDegrees=no																																												
endheader																																												
time	pelvis_tilt_moment	pelvis_list_moment	pelvis_rotation_moment	pelvis_tx_force	pelvis_ty_force	pelvis_tz_force	hip_flexion_r_moment	hip_adduction_r_moment	hip_rotation_r_moment	hip_flexion_l_moment	hip_adduction_l_moment	hip_rotation_l_moment	lumbar_extension_moment	lumbar_bending_moment	lumbar_rotation_moment	knee_angle_r_moment	knee_adduction_r_moment	knee_angle_r_beta_force	knee_angle_l_moment	knee_adduction_l_moment	knee_angle_l_beta_force	thoracic_extension_moment	thoracic_bending_moment	thoracic_rotation_moment	ankle_angle_r_moment	ankle_angle_l_moment	arm_flex_r_moment	arm_add_r_moment	arm_rot_r_moment	arm_flex_l_moment	arm_add_l_moment	arm_rot_l_moment	subtalar_angle_r_moment	subtalar_angle_l_moment	elbow_flex_r_moment	elbow_flex_l_moment	mtp_angle_r_moment	mtp_angle_l_moment	pro_sup_r_moment	pro_sup_l_moment	wrist_flex_r_moment	wrist_dev_r_moment	wrist_flex_l_moment	wrist_dev_l_moment
0.532142857	0.004480823	0.018902203	0.061790846	-0.771530147	0.656254812	-0.850393339	40.66773786	-41.10158912	0.101948808	-47.49650411	15.1996249	3.239732886	23.40437095	-7.014461394	-4.210653214	-6.243356233	-37.98750107	-0.038530283	32.35376719	3.618272713	-0.019879617	28.3278817	-8.355667547	-3.879186591	-101.7078116	0.344113296	0.517685569	-3.992422732	-1.124542162	0.506918201	-0.850081654	-0.036340703	1.20731972	0.06316296	1.072842944	0.844324221	15.1741802	0.010473563	-0.064696605	-0.013922807	-0.102328733	-0.078529221	0.028140515	-0.088631639
0.542785714	0.034616735	0.015218693	0.08771477	-0.752086991	0.493299435	-0.971250335	42.76417099	-38.83167157	0.303271413	-44.90150983	16.95330979	2.508805619	20.40528735	-8.551341346	-3.841033408	-5.99763023	-38.16256565	-0.039457028	30.26381963	4.426507324	-0.021167346	27.52974777	-9.15504228	-3.455579689	-103.8095088	1.435763561	-0.026324182	-3.67898127	-0.94014129	1.69406922	-0.452005004	-0.102691452	0.685811178	-0.022417615	0.762416218	1.262939523	16.17553391	-0.060090041	-0.05068337	-0.031064095	-0.085097994	-0.026006087	0.027125237	-0.141028585
0.553428571	0.004918709	-0.001020391	0.109634082	-0.765575166	0.030240818	-1.134129464	44.61256234	-36.10557368	0.557937073	-42.12557159	17.83739469	1.713530384	16.75608341	-9.776508294	-3.530640112	-5.637882316	-37.7134537	-0.04028063	27.79283249	4.759460631	-0.023818609	25.57522889	-9.631657322	-3.101961867	-104.6013897	2.168482481	-0.687418086	-3.137108929	-0.643323795	2.635260044	0.024810755	-0.143501147	0.359310891	-0.237078171	0.445139881	1.615736262	17.14096399	-0.107979279	-0.032452434	-0.045216199	-0.053312265	0.028683453	0.031084611	-0.184599744
0.564071428	-0.055582263	-0.013960881	0.106701144	-0.843959859	-0.54389236	-1.111852157	46.42556334	-33.03501123	0.737663561	-40.63541046	17.56341536	1.043480463	13.45870058	-10.04567881	-3.237237523	-5.50199789	-36.52954137	-0.041247171	24.71334561	4.503391415	-0.027076426	22.91819091	-9.40328864	-2.806982448	-103.668081	2.890311343	-1.438127898	-2.551093066	-0.319355533	3.052511192	0.497640147	-0.139214952	0.250066802	-0.507042769	0.1350452	1.82292149	17.96092693	-0.145027876	-0.01373642	-0.052002131	-0.018024165	0.081149427	0.041903322	-0.209343892
0.574714286	-0.111535841	-0.005670665	0.05736248	-1.020530492	-1.011367344	-0.657505716	48.42728611	-29.74542392	0.70219383	-41.9556973	15.85143014	0.690047654	11.58687976	-8.66710565	-2.909045763	-5.964515624	-34.50187384	-0.042610863	20.74413636	3.559233214	-0.030059448	20.09401874	-8.052288945	-2.551049312	-100.5849019	4.015107047	-2.235023777	-2.120789354	-0.062603255	2.682371692	0.870114836	-0.072734477	0.377066707	-0.747882564	-0.150365294	1.80815545	18.52260129	-0.186302864	0.001303402	-0.047207922	0.008575139	0.12635687	0.06089626	-0.205838507
0.585357143	-0.134277806	0.0270731	-0.033278965	-1.209994689	-1.167749479	0.210561584	50.59797563	-26.30971027	0.404793296	-46.39499795	12.49370104	0.822255283	11.50924163	-5.388320544	-2.593259314	-7.191514571	-31.49897671	-0.044422534	15.41292032	1.785588632	-0.032019895	17.39494033	-5.3583085	-2.378726533	-94.96557757	5.584899838	-3.059877628	-1.921067303	0.088591152	1.481308068	1.031698816	0.045604971	0.729491672	-0.895556379	-0.402244676	1.543204086	18.68399077	-0.230984809	0.010958045	-0.03071455	0.021636673	0.161973485	0.084510803	-0.1713028
0.596	-0.110342642	0.05405669	-0.099525875	-1.057504319	-0.838833337	0.871020099	52.36352865	-22.68133093	0.011319277	-51.4974727	7.44661924	1.558279115	11.99155101	-0.955407255	-2.562057337	-8.875211215	-27.33818297	-0.046270696	7.813094594	-1.055165792	-0.032513603	14.56044519	-1.549486073	-2.480415526	-86.51113327	6.796497862	-3.951749802	-1.742681901	0.223239767	-0.094304899	0.839650996	0.143106842	1.228767299	-0.93236781	-0.631421899	1.109185493	18.23678043	-0.242141766	0.019092982	-0.011711483	0.033001504	0.191810617	0.098129699	-0.118053738
0.606642857	-0.030844288	0.041850171	-0.071529533	-0.218957153	0.100598651	0.660072806	53.07125889	-18.80814615	-0.290395602	-54.48967369	0.718126586	2.998035698	11.61225408	3.743910652	-3.102390196	-10.63049072	-21.86413731	-0.047701447	-2.921487006	-5.168486619	-0.031187899	11.24494145	3.051887528	-3.055422703	-74.99347067	6.773243041	-4.957356107	-1.355036183	0.440303111	-1.542595421	0.166910994	0.144515561	1.784578282	-0.838060345	-0.853582177	0.599571324	16.97444478	-0.180758166	0.030095633	-1.54E-05	0.055728905	0.220581809	0.086941267	-0.059900493
0.617285714	0.061654413	-0.013805928	0.032885549	0.653366824	0.845679627	-0.237633008	52.02777539	-14.86442229	-0.466302714	-53.93665392	-7.084710602	5.008323803	9.660221271	7.746762858	-4.162338303	-11.826602	-15.63523792	-0.048706962	-15.57121887	-9.816099529	-0.028717995	6.922619371	7.455954175	-4.069491899	-61.4051651	5.538472264	-6.117957224	-0.899447827	0.679866208	-2.851541906	-0.695712281	0.100369667	2.257296702	-0.406279979	-1.128761011	0.050524604	14.91786733	-0.068174412	0.043194497	0.008243413	0.080281212	0.254101281	0.063841937	0.001689359
0.627928571	0.079817166	-0.085137332	0.114334305	0.101390418	-0.118436076	-0.860589211	48.5743338	-11.2624371	-0.624963543	-49.72954757	-14.80572432	7.226687772	6.136609152	10.08814011	-5.369852556	-11.66291367	-9.867620526	-0.049691011	-27.01470245	-13.44826297	-0.026783683	0.982738559	10.12803613	-5.263864678	-47.88833788	3.935599835	-7.475082411	-0.83732491	0.74756626	-4.432235347	-1.100490004	0.168014088	2.477765657	0.702261644	-1.554769937	-0.549196893	12.31669802	0.019378155	0.05325376	0.028492274	0.078035038	0.299295941	0.06537522	0.07553462
0.638571428	0.020030618	-0.045975347	0.102041258	-0.25472044	-0.449624374	-0.80707446	43.81800049	-8.980439117	-0.824518383	-43.37965973	-21.68504956	9.07367006	2.094862603	11.46080523	-6.338551366	-10.81972652	-5.383241175	-0.050782198	-35.6902518	-16.36576194	-0.027807769	-5.141175914	11.55413352	-6.280753473	-36.46722477	2.161193142	-9.180343004	-0.911991595	0.80706127	-5.779689414	-1.266487702	0.228385697	2.686071129	1.82892542	-2.12918329	-1.05176474	9.752944525	0.053144802	0.066648397	0.044562008	0.072261774	0.364080724	0.070089919	0.138333969
0.649214286	-0.140984194	-0.087373258	0.079225921	-1.258942793	-1.205655416	-0.686236597	38.74054973	-7.567809825	-1.115987621	-37.14521253	-29.58785956	11.15316837	-0.826425841	12.02766724	-7.154053686	-9.880662695	-1.365978235	-0.049434254	-42.96281271	-20.057743	-0.029721261	-9.242502618	12.01510787	-7.163384714	-25.01919554	0.653159846	-10.31545972	-0.973595831	0.824863932	-5.879255814	-1.059583887	0.242102649	3.013316337	2.762767901	-2.544063131	-1.095241182	7.143174108	0.034981853	0.075688008	0.046233216	0.064964054	0.409674508	0.074839738	0.142783526
0.659857143	-0.101434608	-0.052357486	0.015958813	-1.012290403	-1.096759308	-0.248065672	31.97080357	-5.857841397	-1.278129608	-29.31859703	-41.1445017	14.68121753	-2.41304721	9.278456976	-8.025605951	-7.716313583	1.521188089	-0.045736003	-49.7129307	-26.77697844	-0.032631328	-10.69028864	9.74218879	-7.967432747	-14.58885447	-1.323173138	-10.05804106	-1.040600587	0.746403229	-3.952384266	-0.439449851	0.196693204	2.700925627	3.438237682	-2.493926177	-0.41769183	4.549892815	-0.033076647	0.073253585	0.028045885	0.056782849	0.398463539	0.07840652	0.054663317
0.6705	0.015322297	-0.023255626	-0.045943464	-0.071856635	-0.661527923	0.302071315	26.26836764	-3.691109083	-1.405925216	-23.58909492	-53.46467363	18.39641163	-2.096307103	5.605640203	-8.837569898	-5.390772399	3.244978726	-0.041277141	-56.15608945	-34.57204218	-0.033724109	-9.896514045	6.570237079	-8.678641625	-5.963460642	-5.206883125	-9.265692867	-1.12130193	0.651720952	-1.519926188	0.010719648	0.093998536	1.857269793	4.237995945	-2.190869782	0.420982476	2.285217315	-0.079066803	0.065737619	0.000793554	0.054281056	0.359269236	0.070317756	-0.056746334
0.681142857	0.098611275	-0.04155896	-0.076526317	0.727366843	-0.470109019	0.754151751	22.78516262	-1.507876863	-1.486397182	-21.12969811	-64.46779723	21.47316184	-0.153377823	2.437802951	-9.532192328	-3.885086803	3.968388341	-0.036814625	-61.68374106	-41.69961289	-0.032330468	-7.514175468	3.654155586	-9.295809897	0.508336912	-11.08578205	-8.397377067	-1.263247307	0.552639206	0.470077194	0.102637516	-0.028487072	0.789779113	5.374021898	-1.786461601	1.088434255	0.556017952	0.083649711	0.056098116	-0.025020572	0.055252219	0.309771917	0.052909858	-0.148257896
0.691785714	0.102221192	-0.067865982	-0.07017993	0.924712766	-0.544226955	0.985903157	21.16079192	-0.135225021	-1.390508579	-20.74556352	-73.08872797	23.58367983	2.483895896	0.07355892	-10.10584928	-3.923810065	3.830242534	-0.032575573	-65.10235625	-47.01466445	-0.02985976	-4.265705902	1.362660779	-9.812167576	4.482197879	-18.11405367	-7.530555116	-1.511414351	0.424471774	1.698099763	-0.073987602	-0.124640103	-0.143622642	6.837379705	-1.350492883	1.48342895	-0.480850092	0.715074016	0.044771204	-0.042148023	0.05398507	0.255764853	0.035022045	-0.204648861
0.702428571	0.020914193	-0.076169772	-0.03322207	0.415834105	-0.810292403	0.965625642	20.84104505	0.025560618	-1.057057641	-21.33066599	-78.82827443	24.60841471	5.117875498	-1.438338922	-10.54400667	-5.617214312	3.03442462	-0.028743357	-65.88203387	-49.99002343	-0.027463377	-0.736913008	-0.205122197	-10.21280264	6.012703484	-25.52353676	-6.673959456	-1.896511974	0.247993893	2.09607824	-0.429734426	-0.172169345	-0.726425283	8.538846023	-0.92328689	1.5870923	-0.818597184	1.899028104	0.031678749	-0.047695888	0.045932711	0.200021792	0.0216046	-0.222256901
